<svg data-v-423bf9ae="" xmlns="http://www.w3.org/2000/svg" viewBox="0 0 356 90" class="iconLeft"><!----><!----><!----><g data-v-423bf9ae="" id="967bf1d6-ea89-4ef2-8c0a-d308486a9e8a" fill="#ffffff" transform="matrix(4.761904617736313,0,0,4.761904617736313,79.87813917088494,-4.76837158203125e-7)"><path d="M1.16 15.75L1.16 15.75Q1.01 15.75 0.90 15.65L0.90 15.65L0.90 15.65Q0.80 15.55 0.80 15.40L0.80 15.40L0.80 6.16L0.80 6.16Q0.80 6.01 0.90 5.91L0.90 5.91L0.90 5.91Q1.01 5.81 1.16 5.81L1.16 5.81L2.83 5.81L2.83 5.81Q2.98 5.81 3.08 5.91L3.08 5.91L3.08 5.91Q3.18 6.01 3.18 6.16L3.18 6.16L3.18 6.66L3.18 6.66Q3.93 5.67 5.35 5.67L5.35 5.67L5.35 5.67Q6.71 5.67 7.48 6.52L7.48 6.52L7.48 6.52Q8.26 7.36 8.32 8.93L8.32 8.93L8.32 8.93Q8.33 9.11 8.33 9.45L8.33 9.45L8.33 9.45Q8.33 9.79 8.32 9.98L8.32 9.98L8.32 9.98Q8.26 11.49 7.48 12.36L7.48 12.36L7.48 12.36Q6.69 13.23 5.35 13.23L5.35 13.23L5.35 13.23Q3.99 13.23 3.32 12.31L3.32 12.31L3.32 15.40L3.32 15.40Q3.32 15.55 3.22 15.65L3.22 15.65L3.22 15.65Q3.12 15.75 2.97 15.75L2.97 15.75L1.16 15.75ZM4.54 11.28L4.54 11.28Q5.17 11.28 5.44 10.91L5.44 10.91L5.44 10.91Q5.71 10.54 5.75 9.88L5.75 9.88L5.75 9.88Q5.77 9.74 5.77 9.45L5.77 9.45L5.77 9.45Q5.77 9.16 5.75 9.02L5.75 9.02L5.75 9.02Q5.71 8.36 5.44 7.99L5.44 7.99L5.44 7.99Q5.17 7.62 4.54 7.62L4.54 7.62L4.54 7.62Q3.93 7.62 3.64 8.00L3.64 8.00L3.64 8.00Q3.35 8.39 3.32 8.97L3.32 8.97L3.32 8.97Q3.30 9.16 3.30 9.51L3.30 9.51L3.30 9.51Q3.30 9.84 3.32 10.02L3.32 10.02L3.32 10.02Q3.35 10.57 3.65 10.93L3.65 10.93L3.65 10.93Q3.95 11.28 4.54 11.28L4.54 11.28ZM10.02 13.09L10.02 13.09Q9.88 13.09 9.78 12.98L9.78 12.98L9.78 12.98Q9.67 12.88 9.67 12.74L9.67 12.74L9.67 6.17L9.67 6.17Q9.67 6.02 9.77 5.92L9.77 5.92L9.77 5.92Q9.87 5.81 10.02 5.81L10.02 5.81L11.73 5.81L11.73 5.81Q11.89 5.81 11.99 5.92L11.99 5.92L11.99 5.92Q12.10 6.02 12.10 6.17L12.10 6.17L12.10 6.71L12.10 6.71Q12.49 6.27 13.01 6.04L13.01 6.04L13.01 6.04Q13.54 5.81 14.18 5.81L14.18 5.81L14.81 5.81L14.81 5.81Q14.97 5.81 15.06 5.91L15.06 5.91L15.06 5.91Q15.16 6.01 15.16 6.16L15.16 6.16L15.16 7.69L15.16 7.69Q15.16 7.83 15.06 7.93L15.06 7.93L15.06 7.93Q14.97 8.04 14.81 8.04L14.81 8.04L13.40 8.04L13.40 8.04Q12.84 8.04 12.54 8.34L12.54 8.34L12.54 8.34Q12.24 8.65 12.24 9.21L12.24 9.21L12.24 12.74L12.24 12.74Q12.24 12.89 12.13 12.99L12.13 12.99L12.13 12.99Q12.03 13.09 11.87 13.09L11.87 13.09L10.02 13.09ZM19.63 13.23L19.63 13.23Q17.86 13.23 16.92 12.41L16.92 12.41L16.92 12.41Q15.97 11.59 15.89 10.08L15.89 10.08L15.89 10.08Q15.88 9.90 15.88 9.45L15.88 9.45L15.88 9.45Q15.88 9.00 15.89 8.82L15.89 8.82L15.89 8.82Q15.97 7.34 16.95 6.50L16.95 6.50L16.95 6.50Q17.92 5.67 19.63 5.67L19.63 5.67L19.63 5.67Q21.34 5.67 22.31 6.50L22.31 6.50L22.31 6.50Q23.28 7.34 23.37 8.82L23.37 8.82L23.37 8.82Q23.39 9.18 23.39 9.45L23.39 9.45L23.39 9.45Q23.39 9.72 23.37 10.08L23.37 10.08L23.37 10.08Q23.28 11.59 22.34 12.41L22.34 12.41L22.34 12.41Q21.39 13.23 19.63 13.23L19.63 13.23ZM19.63 11.47L19.63 11.47Q20.20 11.47 20.48 11.11L20.48 11.11L20.48 11.11Q20.76 10.75 20.80 10.01L20.80 10.01L20.80 10.01Q20.82 9.87 20.82 9.45L20.82 9.45L20.82 9.45Q20.82 9.03 20.80 8.89L20.80 8.89L20.80 8.89Q20.76 8.16 20.48 7.80L20.48 7.80L20.48 7.80Q20.20 7.43 19.63 7.43L19.63 7.43L19.63 7.43Q19.05 7.43 18.77 7.80L18.77 7.80L18.77 7.80Q18.49 8.16 18.45 8.89L18.45 8.89L18.44 9.45L18.45 10.01L18.45 10.01Q18.49 10.75 18.77 11.11L18.77 11.11L18.77 11.11Q19.05 11.47 19.63 11.47L19.63 11.47ZM27.78 13.23L27.78 13.23Q26.63 13.23 25.86 12.91L25.86 12.91L25.86 12.91Q25.09 12.59 24.72 12.14L24.72 12.14L24.72 12.14Q24.35 11.69 24.35 11.33L24.35 11.33L24.35 11.33Q24.35 11.19 24.45 11.09L24.45 11.09L24.45 11.09Q24.56 11.00 24.68 11.00L24.68 11.00L26.38 11.00L26.38 11.00Q26.46 11.00 26.52 11.06L26.52 11.06L26.52 11.06Q26.75 11.21 26.78 11.24L26.78 11.24L26.78 11.24Q27.05 11.44 27.28 11.54L27.28 11.54L27.28 11.54Q27.51 11.65 27.83 11.65L27.83 11.65L27.83 11.65Q28.21 11.65 28.45 11.50L28.45 11.50L28.45 11.50Q28.70 11.35 28.70 11.09L28.70 11.09L28.70 11.09Q28.70 10.86 28.57 10.72L28.57 10.72L28.57 10.72Q28.43 10.58 28.06 10.45L28.06 10.45L28.06 10.45Q27.69 10.32 26.94 10.18L26.94 10.18L26.94 10.18Q24.51 9.69 24.51 7.94L24.51 7.94L24.51 7.94Q24.51 7.36 24.88 6.84L24.88 6.84L24.88 6.84Q25.26 6.31 25.98 5.99L25.98 5.99L25.98 5.99Q26.70 5.67 27.71 5.67L27.71 5.67L27.71 5.67Q28.73 5.67 29.48 5.98L29.48 5.98L29.48 5.98Q30.23 6.30 30.62 6.74L30.62 6.74L30.62 6.74Q31.01 7.18 31.01 7.55L31.01 7.55L31.01 7.55Q31.01 7.67 30.92 7.77L30.92 7.77L30.92 7.77Q30.83 7.87 30.70 7.87L30.70 7.87L29.16 7.87L29.16 7.87Q29.04 7.87 28.97 7.81L28.97 7.81L28.97 7.81Q28.80 7.73 28.63 7.60L28.63 7.60L28.63 7.60Q28.38 7.43 28.19 7.34L28.19 7.34L28.19 7.34Q28 7.25 27.71 7.25L27.71 7.25L27.71 7.25Q27.36 7.25 27.16 7.41L27.16 7.41L27.16 7.41Q26.96 7.56 26.96 7.80L26.96 7.80L26.96 7.80Q26.96 8.01 27.08 8.14L27.08 8.14L27.08 8.14Q27.20 8.27 27.57 8.40L27.57 8.40L27.57 8.40Q27.94 8.53 28.70 8.67L28.70 8.67L28.70 8.67Q30.07 8.90 30.70 9.51L30.70 9.51L30.70 9.51Q31.32 10.12 31.32 10.93L31.32 10.93L31.32 10.93Q31.32 11.98 30.39 12.61L30.39 12.61L30.39 12.61Q29.46 13.23 27.78 13.23L27.78 13.23ZM32.89 13.09L32.89 13.09Q32.73 13.09 32.63 12.99L32.63 12.99L32.63 12.99Q32.52 12.89 32.52 12.74L32.52 12.74L32.52 3.50L32.52 3.50Q32.52 3.35 32.63 3.25L32.63 3.25L32.63 3.25Q32.73 3.15 32.89 3.15L32.89 3.15L34.78 3.15L34.78 3.15Q34.93 3.15 35.03 3.25L35.03 3.25L35.03 3.25Q35.14 3.35 35.14 3.50L35.14 3.50L35.14 6.62L35.14 6.62Q35.95 5.67 37.34 5.67L37.34 5.67L37.34 5.67Q38.14 5.67 38.78 6.03L38.78 6.03L38.78 6.03Q39.42 6.40 39.79 7.11L39.79 7.11L39.79 7.11Q40.15 7.83 40.15 8.83L40.15 8.83L40.15 12.74L40.15 12.74Q40.15 12.89 40.05 12.99L40.05 12.99L40.05 12.99Q39.94 13.09 39.79 13.09L39.79 13.09L37.88 13.09L37.88 13.09Q37.74 13.09 37.64 12.98L37.64 12.98L37.64 12.98Q37.53 12.88 37.53 12.74L37.53 12.74L37.53 8.92L37.53 8.92Q37.53 8.30 37.23 7.96L37.23 7.96L37.23 7.96Q36.92 7.62 36.34 7.62L36.34 7.62L36.34 7.62Q35.78 7.62 35.46 7.96L35.46 7.96L35.46 7.96Q35.14 8.30 35.14 8.92L35.14 8.92L35.14 12.74L35.14 12.74Q35.14 12.89 35.03 12.99L35.03 12.99L35.03 12.99Q34.93 13.09 34.78 13.09L34.78 13.09L32.89 13.09ZM45.18 13.23L45.18 13.23Q43.41 13.23 42.47 12.41L42.47 12.41L42.47 12.41Q41.52 11.59 41.44 10.08L41.44 10.08L41.44 10.08Q41.43 9.90 41.43 9.45L41.43 9.45L41.43 9.45Q41.43 9.00 41.44 8.82L41.44 8.82L41.44 8.82Q41.52 7.34 42.50 6.50L42.50 6.50L42.50 6.50Q43.47 5.67 45.18 5.67L45.18 5.67L45.18 5.67Q46.89 5.67 47.86 6.50L47.86 6.50L47.86 6.50Q48.83 7.34 48.92 8.82L48.92 8.82L48.92 8.82Q48.94 9.18 48.94 9.45L48.94 9.45L48.94 9.45Q48.94 9.72 48.92 10.08L48.92 10.08L48.92 10.08Q48.83 11.59 47.89 12.41L47.89 12.41L47.89 12.41Q46.94 13.23 45.18 13.23L45.18 13.23ZM45.18 11.47L45.18 11.47Q45.75 11.47 46.03 11.11L46.03 11.11L46.03 11.11Q46.31 10.75 46.35 10.01L46.35 10.01L46.35 10.01Q46.37 9.87 46.37 9.45L46.37 9.45L46.37 9.45Q46.37 9.03 46.35 8.89L46.35 8.89L46.35 8.89Q46.31 8.16 46.03 7.80L46.03 7.80L46.03 7.80Q45.75 7.43 45.18 7.43L45.18 7.43L45.18 7.43Q44.60 7.43 44.32 7.80L44.32 7.80L44.32 7.80Q44.04 8.16 44.00 8.89L44.00 8.89L43.99 9.45L44.00 10.01L44.00 10.01Q44.04 10.75 44.32 11.11L44.32 11.11L44.32 11.11Q44.60 11.47 45.18 11.47L45.18 11.47ZM50.64 15.75L50.64 15.75Q50.48 15.75 50.38 15.65L50.38 15.65L50.38 15.65Q50.27 15.55 50.27 15.40L50.27 15.40L50.27 6.16L50.27 6.16Q50.27 6.01 50.38 5.91L50.38 5.91L50.38 5.91Q50.48 5.81 50.64 5.81L50.64 5.81L52.30 5.81L52.30 5.81Q52.46 5.81 52.56 5.91L52.56 5.91L52.56 5.91Q52.65 6.01 52.65 6.16L52.65 6.16L52.65 6.66L52.65 6.66Q53.41 5.67 54.82 5.67L54.82 5.67L54.82 5.67Q56.18 5.67 56.96 6.52L56.96 6.52L56.96 6.52Q57.74 7.36 57.79 8.93L57.79 8.93L57.79 8.93Q57.81 9.11 57.81 9.45L57.81 9.45L57.81 9.45Q57.81 9.79 57.79 9.98L57.79 9.98L57.79 9.98Q57.74 11.49 56.95 12.36L56.95 12.36L56.95 12.36Q56.17 13.23 54.82 13.23L54.82 13.23L54.82 13.23Q53.47 13.23 52.79 12.31L52.79 12.31L52.79 15.40L52.79 15.40Q52.79 15.55 52.70 15.65L52.70 15.65L52.70 15.65Q52.60 15.75 52.44 15.75L52.44 15.75L50.64 15.75ZM54.01 11.28L54.01 11.28Q54.64 11.28 54.91 10.91L54.91 10.91L54.91 10.91Q55.19 10.54 55.23 9.88L55.23 9.88L55.23 9.88Q55.24 9.74 55.24 9.45L55.24 9.45L55.24 9.45Q55.24 9.16 55.23 9.02L55.23 9.02L55.23 9.02Q55.19 8.36 54.91 7.99L54.91 7.99L54.91 7.99Q54.64 7.62 54.01 7.62L54.01 7.62L54.01 7.62Q53.41 7.62 53.12 8.00L53.12 8.00L53.12 8.00Q52.82 8.39 52.79 8.97L52.79 8.97L52.79 8.97Q52.78 9.16 52.78 9.51L52.78 9.51L52.78 9.51Q52.78 9.84 52.79 10.02L52.79 10.02L52.79 10.02Q52.82 10.57 53.12 10.93L53.12 10.93L53.12 10.93Q53.42 11.28 54.01 11.28L54.01 11.28Z"></path></g><!----><g data-v-423bf9ae="" id="44100ec1-29ed-4e4b-a6a7-d3cc6f44605c" transform="matrix(1.5960688189402201,0,0,1.5960688189402201,-19.00348463546956,-5.271890055525311)" stroke="none" fill="#FCB826"><path d="M18.8 50.6c-2.7 0-4.8 2.1-4.9 4.7 0 2.7 2.1 4.8 4.7 4.9 2.7 0 4.8-2.1 4.9-4.7 0-2.7-2.1-4.9-4.7-4.9zm-.1 6.9c-1.2 0-2.1-1-2.1-2.1 0-1.2 1-2.1 2.1-2.1 1.2 0 2.1 1 2.1 2.1 0 1.2-1 2.1-2.1 2.1zM43.1 50.6c-2.7 0-4.8 2.1-4.9 4.7 0 2.7 2.1 4.8 4.7 4.9 2.7 0 4.8-2.1 4.9-4.7.1-2.7-2-4.9-4.7-4.9zm-.1 6.9c-1.2 0-2.1-1-2.1-2.1 0-1.2 1-2.1 2.1-2.1 1.2 0 2.1 1 2.1 2.1 0 1.2-.9 2.1-2.1 2.1zM50.1 22.4c-1.5-1.7-3.7-2.7-6-2.7h-25l.8-5.8c.3-2.6-.7-5.3-2.7-7L14 4.1c-.5-.4-1.3-.4-1.7.1-.4.5-.4 1.3.1 1.7l3.2 2.7c1.4 1.2 2.1 3 1.8 4.8l-.9 7c0 .1-.1.2-.1.4l-2.2 17c-.3 2.2.4 4.5 1.9 6.2 1.5 1.7 3.6 2.7 5.9 2.7h20.3c1.9 0 3.7-.7 5.1-1.9 1.4-1.2 2.4-2.9 2.6-4.8l1.7-11.5c.6-2.1-.1-4.4-1.6-6.1zM23 44.4h-1c-1.6 0-3-.7-4.1-1.8-1-1.2-1.5-2.7-1.3-4.3v-.2h7.1l-.7 6.3zm1.1-8.7h-7l.6-4.8h7l-.6 4.8zM18 28.4l.8-6.3h6.8l-.7 6.3H18zm12.9 16h-5.4l.7-6.3h5.4l-.7 6.3zm1-8.7h-5.4l.6-4.8h5.4l-.6 4.8zm-4.5-7.3l.7-6.3h5.4l-.8 6.3h-5.3zm11.3 16h-5.4l.7-6.3h5.4l-.7 6.3zm1-8.7h-5.4l.6-4.8h5.4l-.6 4.8zm-4.5-7.3l.8-6.3h5.4l-.8 6.3h-5.4zm12.5 11.4c-.4 2.7-2.7 4.6-5.3 4.6h-1.2l.8-6.3h6l-.3 1.7zm.7-4.1h-6.2l.6-4.8h6.3l-.7 4.8zm1.1-7.4l-6.4.1.8-6.3h.3c1.6 0 3.1.7 4.1 1.9 1 1.2 1.4 2.8 1.2 4.3z"></path></g><!----></svg>